<?xml version="1.0" standalone="no"?>
<!DOCTYPE svg PUBLIC "-//W3C//DTD SVG 20010904//EN"
 "http://www.w3.org/TR/2001/REC-SVG-20010904/DTD/svg10.dtd">
<svg version="1.0" xmlns="http://www.w3.org/2000/svg"
 width="980.000000pt" height="980.000000pt" viewBox="0 0 980.000000 980.000000"
 preserveAspectRatio="xMidYMid meet">

<g transform="translate(0.000000,980.000000) scale(0.100000,-0.100000)"
fill="#000000" stroke="none">
<path d="M4560 9789 c-824 -56 -1659 -338 -2350 -794 -295 -195 -496 -360
-771 -634 -207 -207 -329 -346 -474 -541 -824 -1109 -1141 -2521 -869 -3880
236 -1183 894 -2226 1866 -2960 1475 -1114 3492 -1292 5143 -455 830 421 1522
1064 2001 1861 720 1198 888 2676 457 4017 -300 936 -883 1763 -1678 2382
-418 326 -946 604 -1465 773 -596 194 -1232 273 -1860 231z m600 -1049 c685
-49 1308 -262 1880 -645 1599 -1071 2163 -3156 1317 -4879 -323 -659 -801
-1189 -1434 -1589 -144 -91 -496 -265 -663 -327 -1196 -450 -2538 -279 -3577
457 -820 579 -1388 1466 -1567 2443 -47 259 -60 405 -60 700 0 295 13 442 60
700 242 1314 1153 2409 2409 2895 505 196 1090 283 1635 245z"/>
<path d="M4640 7689 c-636 -63 -1226 -334 -1677 -772 -147 -143 -238 -247
-335 -382 -662 -922 -703 -2153 -103 -3115 214 -343 555 -684 890 -891 656
-405 1424 -527 2165 -343 836 208 1551 815 1889 1606 250 584 297 1212 136
1826 -49 186 -104 332 -195 517 -336 684 -937 1201 -1664 1434 -261 83 -497
121 -796 126 -118 2 -258 -1 -310 -6z m445 -1049 c607 -70 1118 -429 1386
-975 311 -636 210 -1382 -261 -1922 -239 -274 -589 -479 -943 -553 -707 -148
-1419 141 -1820 738 -393 584 -393 1360 0 1944 362 539 1004 840 1638 768z"/>
<path d="M4760 5585 c-181 -36 -342 -147 -446 -306 -210 -322 -118 -755 206
-964 159 -102 330 -136 513 -101 276 53 500 277 553 553 35 183 1 354 -101
513 -155 240 -444 362 -725 305z"/>
</g>
</svg>
