<svg width="33" height="40" viewBox="0 0 33 40" fill="none" xmlns="http://www.w3.org/2000/svg">
<path d="M32.3549 7.75298C32.3549 6.82532 31.6025 6.07295 30.6748 6.07295H28.2424C25.4972 2.38927 21.1124 0 16.1774 0C11.2425 0 6.85499 2.38927 4.11245 6.07295H1.68005C0.752388 6.07295 0 6.82532 0 7.75298C0 8.68064 0.752388 9.43302 1.68005 9.43302H2.22747C1.52903 11.167 1.14071 13.0574 1.14071 15.0394V38.32C1.14071 39.2476 1.89308 40 2.82074 40H12.5639C22.8518 40 31.2196 31.6295 31.2196 21.3443V15.0394C31.2196 13.0574 30.8313 11.167 30.1328 9.43302H30.6802C31.6079 9.43302 32.3603 8.68064 32.3603 7.75298H32.3549ZM16.1748 3.36277C19.0144 3.36277 21.6194 4.38212 23.6446 6.07295H22.7142C20.0499 6.07295 17.6768 7.34848 16.1748 9.31976C14.6727 7.34848 12.2996 6.07295 9.63528 6.07295H8.70492C10.7301 4.38212 13.3351 3.36277 16.1748 3.36277V3.36277ZM12.3401 29.5827C11.2533 33.1396 8.2276 35.8606 4.49808 36.497V24.5048C6.48014 26.948 9.21189 28.7575 12.3401 29.5827ZM12.5585 36.6372H11.6497C13.5832 34.9167 15.0152 32.6434 15.692 30.0654C15.8511 30.0708 16.013 30.0789 16.1748 30.0789C20.6297 30.0789 24.6343 28.1319 27.393 25.0442C25.7345 31.6942 19.7155 36.6372 12.5585 36.6372ZM27.8514 15.0394C27.8514 21.4791 22.6118 26.7161 16.1748 26.7161C9.73776 26.7161 4.49808 21.4764 4.49808 15.0394C4.49808 13.0088 5.01854 11.0996 5.93542 9.43302H9.63797C12.3158 9.43302 14.4947 11.6119 14.4947 14.2925C14.4947 15.2201 15.2471 15.9725 16.1748 15.9725C17.1024 15.9725 17.8548 15.2201 17.8548 14.2925C17.8548 11.6146 20.0337 9.43302 22.7142 9.43302H26.4168C27.331 11.0969 27.8541 13.0088 27.8541 15.0394H27.8514Z" fill="white"/>
<path d="M23.5451 16.2346C24.5639 16.0692 25.2557 15.1093 25.0903 14.0905C24.9249 13.0717 23.965 12.3799 22.9462 12.5453C21.9274 12.7107 21.2356 13.6706 21.401 14.6894C21.5664 15.7082 22.5263 16.4 23.5451 16.2346Z" fill="white"/>
<path d="M10.086 15.98C10.964 15.4373 11.2358 14.2857 10.6931 13.4077C10.1505 12.5298 8.99885 12.258 8.12091 12.8006C7.24296 13.3433 6.97116 14.4949 7.51381 15.3729C8.05646 16.2508 9.20808 16.5226 10.086 15.98Z" fill="white"/>
</svg>
