<?xml version="1.0" standalone="no"?>
<!DOCTYPE svg PUBLIC "-//W3C//DTD SVG 20010904//EN"
 "http://www.w3.org/TR/2001/REC-SVG-20010904/DTD/svg10.dtd">
<svg version="1.0" xmlns="http://www.w3.org/2000/svg"
 width="1280.000000pt" height="1280.000000pt" viewBox="0 0 1280.000000 1280.000000"
 preserveAspectRatio="xMidYMid meet">
<metadata>
Created by potrace 1.14, written by Peter Selinger 2001-2017
</metadata>
<g transform="translate(0.000000,1280.000000) scale(0.100000,-0.100000)"
fill="#000000" stroke="none">
<path d="M604 10203 c-130 -45 -203 -124 -229 -249 -2 -6 -6 -53 -9 -105 -4
-52 -9 -114 -11 -139 -2 -25 -6 -92 -10 -149 -3 -57 -8 -129 -11 -158 -4 -51
-7 -85 -19 -253 -4 -66 -11 -154 -21 -270 -3 -36 -7 -92 -9 -125 -2 -33 -6
-89 -9 -125 -3 -36 -9 -96 -12 -135 -2 -38 -7 -97 -10 -130 -2 -33 -6 -87 -9
-120 -2 -33 -6 -85 -9 -115 -4 -30 -8 -80 -10 -110 -3 -30 -7 -95 -11 -145 -4
-49 -9 -106 -11 -125 -2 -19 -6 -79 -9 -134 -4 -54 -8 -107 -10 -117 -6 -28
-18 -195 -19 -251 -1 -27 -3 -48 -6 -48 -3 0 -5 -19 -6 -43 -1 -59 -13 -227
-18 -257 -3 -14 -8 -68 -12 -120 -3 -52 -8 -115 -10 -140 -2 -25 -6 -67 -8
-95 -2 -27 -6 -77 -10 -110 -3 -33 -8 -96 -11 -140 -4 -44 -8 -96 -10 -115 -2
-19 -6 -76 -10 -127 -3 -51 -8 -102 -10 -115 -2 -13 -6 -63 -10 -113 -4 -49
-8 -106 -10 -125 -2 -19 -6 -77 -10 -128 -3 -52 -9 -103 -11 -115 -10 -45 -13
-297 -3 -302 5 -4 9 -13 9 -21 0 -34 58 -130 112 -184 52 -53 143 -109 192
-117 11 -2 24 -7 30 -12 11 -9 206 -6 286 3 25 3 63 8 85 11 156 19 536 38
780 38 214 0 591 -15 690 -28 53 -6 109 -13 170 -20 62 -6 132 -15 165 -21 14
-2 43 -6 65 -9 22 -3 51 -8 65 -11 14 -3 39 -7 55 -10 60 -10 196 -37 245 -49
14 -3 36 -8 50 -11 14 -3 34 -8 45 -11 11 -4 27 -8 35 -9 47 -8 365 -110 467
-150 47 -19 88 -32 90 -30 2 2 19 0 38 -4 28 -6 74 -2 130 13 71 19 156 91
190 162 26 54 29 69 28 145 -1 78 -27 142 -83 197 -55 55 -60 59 -147 94 -43
17 -91 37 -108 44 -36 15 -221 77 -285 95 -25 7 -56 16 -70 21 -58 19 -313 79
-318 75 -2 -3 -14 0 -26 6 -11 6 -34 13 -51 14 -26 3 -79 12 -110 20 -5 1 -28
5 -50 8 -23 4 -52 9 -65 11 -14 3 -43 7 -65 10 -22 3 -51 7 -64 10 -14 2 -45
7 -70 10 -25 3 -62 7 -81 10 -19 3 -60 7 -90 10 -30 3 -73 8 -95 10 -22 3 -74
7 -115 10 -41 3 -104 7 -140 10 -337 23 -932 23 -1060 1 -14 -3 -52 -7 -85
-10 -33 -3 -76 -8 -95 -11 -76 -13 -75 -13 -74 25 0 19 4 62 8 95 4 33 9 76
11 95 3 33 13 134 19 190 2 14 7 59 10 100 4 41 9 86 11 100 2 14 7 59 10 100
3 41 7 89 9 105 5 40 18 180 22 230 5 59 13 153 18 210 6 59 12 131 21 235 3
41 8 95 10 120 3 25 7 77 10 115 3 39 7 95 10 125 2 30 7 89 10 130 9 123 17
194 23 204 3 5 -1 6 -8 1 -9 -5 -11 -4 -6 3 7 12 12 51 20 177 3 44 8 107 11
140 3 33 8 94 10 135 10 162 15 228 20 300 3 41 8 113 11 160 3 47 7 110 9
140 7 106 14 226 20 315 3 50 7 124 10 165 3 41 8 118 10 170 3 52 8 124 10
160 23 377 23 416 -5 491 -23 60 -92 142 -131 154 -10 4 -19 10 -19 13 0 13
-85 34 -147 36 -33 2 -77 -3 -99 -11z"/>
<path d="M3421 10209 c-111 -21 -195 -85 -250 -189 -124 -236 24 -499 274
-485 58 4 135 24 135 36 0 5 6 9 14 9 21 0 101 76 134 127 43 69 62 140 58
226 -4 68 -31 157 -48 157 -5 0 -8 5 -8 12 0 17 -57 64 -106 87 -48 23 -140
32 -203 20z"/>
<path d="M10110 9404 c-41 -6 -76 -12 -77 -12 -5 -3 -7 -4 -28 -6 -93 -12
-435 -170 -464 -213 -3 -6 -16 -15 -29 -22 -56 -30 -227 -190 -317 -296 -27
-33 -55 -66 -62 -73 -37 -39 -233 -340 -233 -358 0 -2 -12 -23 -27 -47 -14
-23 -26 -43 -24 -45 1 -1 -18 -42 -41 -90 -23 -48 -43 -91 -44 -97 -1 -5 -12
-31 -23 -57 -12 -26 -21 -51 -21 -54 1 -4 -2 -10 -7 -13 -4 -3 -36 -62 -71
-131 -95 -188 -122 -233 -257 -435 -71 -106 -219 -312 -234 -325 -3 -3 -24
-27 -46 -55 -51 -63 -71 -88 -115 -139 -49 -56 -306 -314 -360 -361 -85 -74
-240 -195 -251 -195 -4 0 -14 -6 -21 -13 -13 -13 -69 -51 -133 -89 -25 -15
-91 -48 -295 -147 -23 -11 -48 -2 -55 20 -4 10 -11 19 -16 19 -5 0 -9 5 -9 10
0 9 -40 67 -100 144 -8 11 -46 53 -85 94 -38 40 -71 79 -73 86 -1 7 8 18 22
24 76 34 258 182 381 308 94 96 98 101 155 174 19 25 38 47 41 50 20 16 145
221 192 315 73 144 94 192 128 298 41 124 60 195 74 277 21 119 28 204 28 310
1 84 -11 218 -19 232 -2 4 -7 26 -10 50 -12 86 -108 311 -157 369 -10 11 -17
23 -17 27 0 13 -91 114 -156 172 -93 84 -273 185 -365 204 -13 3 -49 12 -79
21 -30 8 -71 17 -90 20 -19 2 -46 7 -60 10 -29 6 -257 7 -310 1 -31 -4 -94
-16 -155 -30 -57 -13 -168 -52 -233 -82 -82 -38 -210 -111 -230 -131 -7 -7
-17 -13 -22 -13 -5 0 -15 -6 -22 -12 -7 -7 -38 -32 -68 -55 -109 -84 -229
-200 -340 -329 -88 -104 -280 -379 -280 -403 0 -6 -3 -11 -7 -11 -5 0 -13 -10
-19 -23 -6 -12 -29 -56 -51 -97 -22 -41 -70 -131 -105 -200 -141 -271 -271
-492 -452 -770 -44 -69 -84 -126 -88 -128 -5 -2 -8 -8 -8 -13 0 -8 -70 -109
-100 -146 -5 -7 -10 -17 -10 -23 0 -5 -4 -10 -8 -10 -5 0 -23 -21 -40 -47 -73
-114 -214 -239 -292 -260 -159 -44 -273 104 -273 352 0 62 13 336 17 375 3 19
7 71 11 115 3 44 8 105 11 135 3 30 7 78 9 105 2 28 7 79 10 115 4 36 8 83 10
105 2 22 6 65 10 96 3 31 8 79 10 105 12 145 15 172 20 209 6 46 17 184 19
233 0 17 3 32 6 32 3 0 5 24 6 53 0 28 4 90 8 137 11 111 8 162 -11 219 -51
150 -203 242 -361 219 -141 -21 -268 -146 -275 -270 -1 -21 -4 -38 -7 -38 -3
0 -5 -15 -6 -33 0 -32 -11 -135 -19 -192 -2 -16 -7 -62 -10 -100 -3 -39 -7
-81 -10 -95 -2 -14 -7 -59 -10 -100 -3 -41 -8 -93 -10 -115 -3 -22 -7 -69 -10
-105 -2 -36 -7 -85 -9 -110 -7 -69 -15 -147 -21 -230 -3 -41 -8 -97 -10 -125
-13 -144 -15 -177 -30 -420 -18 -292 -24 -633 -12 -720 4 -27 10 -67 13 -88
12 -89 93 -297 115 -297 5 0 9 -7 9 -14 0 -24 94 -131 160 -181 70 -54 197
-116 290 -141 95 -26 332 -26 415 1 33 10 62 19 65 20 18 2 108 40 121 51 8 8
21 14 27 14 13 0 116 62 120 73 2 4 8 7 14 7 5 0 16 6 23 13 8 6 20 17 27 22
97 75 247 218 319 306 85 102 146 181 179 229 19 27 41 58 48 68 123 168 384
650 557 1027 111 244 261 500 350 601 6 7 26 31 45 55 65 80 241 249 259 249
4 0 16 9 26 20 10 11 22 20 26 20 4 0 27 13 51 29 57 37 159 82 221 97 4 1 8
2 10 3 10 8 87 15 162 15 131 -1 241 -42 315 -117 33 -34 76 -108 84 -148 3
-13 9 -40 14 -59 9 -38 8 -295 -2 -347 -3 -18 -8 -45 -11 -60 -8 -48 -13 -67
-25 -113 -22 -81 -53 -165 -64 -172 -6 -4 -7 -8 -3 -8 13 0 -69 -145 -127
-224 -53 -74 -140 -165 -216 -228 -25 -21 -50 -42 -56 -47 -55 -46 -301 -183
-344 -193 -8 -2 -17 -5 -20 -8 -3 -3 -23 -11 -45 -19 -89 -30 -171 -64 -187
-79 -10 -8 -18 -12 -18 -8 0 4 -11 -4 -24 -18 -13 -15 -27 -26 -31 -26 -10 0
-86 -100 -91 -120 0 -3 -6 -18 -12 -33 -19 -46 -28 -128 -20 -188 17 -133 109
-253 243 -318 107 -52 182 -106 274 -198 46 -46 82 -86 80 -87 -4 -3 -191
-102 -246 -130 -13 -6 -23 -14 -23 -18 0 -5 -5 -8 -11 -8 -7 0 -51 -26 -98
-57 -156 -104 -248 -179 -376 -309 -116 -116 -132 -135 -210 -241 -36 -48 -68
-92 -73 -98 -40 -53 -146 -252 -211 -397 -45 -102 -128 -364 -156 -493 -59
-272 -50 -516 27 -745 25 -73 115 -253 129 -258 5 -2 9 -9 9 -15 0 -30 178
-214 259 -269 25 -17 48 -34 51 -37 25 -29 256 -125 330 -137 14 -3 32 -7 40
-10 43 -17 267 -23 359 -11 388 53 728 314 940 720 45 87 118 259 126 295 2 9
9 31 15 47 6 17 13 37 15 45 2 8 13 51 24 95 18 73 24 102 36 175 2 14 6 39 9
55 9 55 22 176 31 300 6 75 6 441 0 515 -8 104 -14 161 -24 225 -6 33 -13 78
-16 100 -7 52 -40 201 -54 243 -10 33 -9 34 27 49 147 60 349 156 362 172 3 3
21 15 40 25 19 11 44 24 54 30 11 6 25 14 30 19 6 4 51 35 100 68 49 34 94 65
100 70 6 5 36 28 66 51 30 24 57 45 60 48 3 3 37 32 75 65 78 67 214 195 284
269 25 27 57 61 71 75 14 15 48 53 75 86 28 32 57 66 65 75 8 9 31 37 50 63
35 47 60 60 60 32 0 -8 4 -23 10 -33 5 -9 25 -52 45 -94 36 -79 138 -237 191
-296 56 -64 137 -143 183 -180 25 -20 48 -40 51 -43 3 -4 43 -32 90 -63 149
-99 408 -214 540 -239 14 -3 32 -8 40 -11 37 -14 210 -42 325 -53 90 -8 349
-8 440 1 154 15 153 15 230 30 36 7 105 18 110 17 2 0 23 6 45 14 22 8 40 12
40 10 0 -2 19 3 43 11 23 9 47 17 52 18 48 12 102 29 110 36 6 4 21 11 35 15
137 40 420 204 585 339 83 68 104 87 204 188 96 97 120 124 176 193 17 20 42
51 58 68 15 17 27 35 27 40 0 5 6 14 13 22 7 7 36 46 63 86 27 41 52 76 55 79
3 3 8 10 10 15 4 10 110 195 130 225 19 30 187 376 194 400 4 14 12 31 18 38
27 34 8 240 -23 250 -6 2 -10 9 -10 16 0 19 -70 85 -114 109 -110 59 -244 56
-341 -7 -70 -45 -106 -97 -211 -309 -58 -116 -115 -230 -128 -252 -12 -22 -33
-58 -45 -80 -26 -46 -133 -207 -142 -215 -3 -3 -10 -12 -15 -21 -19 -35 -142
-176 -211 -243 -69 -67 -90 -86 -143 -127 -25 -18 -47 -36 -50 -39 -26 -28
-250 -154 -315 -178 -16 -6 -60 -22 -97 -36 -37 -13 -82 -27 -100 -31 -18 -3
-37 -7 -43 -9 -213 -60 -572 -65 -800 -10 -33 8 -69 16 -79 19 -187 45 -416
194 -522 340 -16 22 -32 42 -35 45 -3 3 -25 43 -47 90 -49 103 -78 208 -87
315 -4 44 -9 83 -11 87 -12 20 23 15 93 -13 145 -58 310 -100 463 -116 122
-13 327 -7 433 12 15 3 37 7 50 9 12 2 40 9 62 15 22 6 49 12 60 14 11 2 31 8
45 14 14 6 50 20 82 31 80 30 200 96 291 159 69 49 227 193 227 208 0 3 9 16
21 28 27 30 89 123 89 135 0 6 4 12 9 14 11 4 57 104 86 188 84 238 98 460 44
690 -11 47 -24 93 -30 102 -5 10 -9 25 -9 33 0 8 -5 15 -12 15 -6 0 -8 3 -5 7
6 6 -77 171 -92 183 -3 3 -26 31 -50 63 -24 31 -69 80 -100 108 -68 62 -194
149 -216 149 -8 0 -15 4 -15 8 0 4 -15 13 -32 21 -84 33 -171 62 -205 67 -21
3 -42 8 -46 11 -28 17 -251 22 -347 7z m233 -631 c131 -19 257 -147 296 -298
14 -54 7 -208 -13 -270 -8 -27 -15 -53 -16 -58 0 -15 -56 -114 -91 -163 -21
-28 -57 -66 -81 -85 -24 -18 -45 -36 -48 -40 -23 -28 -201 -102 -277 -115 -54
-10 -259 -9 -318 0 -106 17 -359 114 -412 158 -12 10 -6 25 84 203 51 100 83
155 115 196 15 20 28 40 28 43 0 14 116 153 177 213 104 101 209 164 348 209
17 6 57 11 90 13 33 1 62 4 64 7 2 2 8 1 13 -2 5 -3 24 -8 41 -11z m-3811
-3483 c8 -37 38 -208 44 -250 18 -127 24 -446 11 -615 -11 -142 -22 -247 -32
-287 -2 -13 -7 -34 -9 -48 -3 -14 -7 -34 -10 -45 -2 -11 -9 -42 -16 -70 -12
-53 -44 -151 -65 -200 -35 -78 -82 -168 -97 -185 -10 -11 -18 -23 -18 -27 0
-18 -128 -142 -181 -176 -124 -79 -276 -102 -391 -59 -75 28 -99 42 -157 92
-39 34 -90 112 -114 177 -30 82 -30 76 -29 238 0 114 4 145 31 250 18 66 33
125 35 130 8 34 40 122 47 130 5 5 9 15 9 23 0 27 89 210 143 295 20 31 37 61
37 66 0 5 3 11 8 13 4 2 33 37 64 78 54 71 214 235 268 273 159 113 372 238
400 234 8 -1 18 -18 22 -37z"/>
</g>
</svg>
